<?xml version="1.0" encoding="UTF-8"?>
<svg version="1.1" viewBox="0 0 819 809" width="1280" height="1280" xmlns="http://www.w3.org/2000/svg">
<path transform="translate(0)" d="m0 0h819v809h-819z"/>
<path transform="translate(498,86)" d="m0 0 27 1 18 3 21 6 15 6 16 8 12 7 9 6v2l4 2 7 5v2h2l8 8v2h2v2h2v2h2v2h2l9 12v2h2l8 13 6 10 7 15 10 30 4 2v2l4 1v2l5 2 10 11 6 9v3h2l6 15 3 10 2 9 2 14v37l-4 24-5 18-6 15-8 14-9 12-10 11h-2v2l-8 5h-2v2l-15 6-10 1h-13l-9-2-12-6v-2l-4-2-6-5v-2h-2v-2h-2l-7-11-8-16-4-12-4-20-1-13v-21l1-13 2-12 5-18 6-16 10-20h2l2-5 10-13h2v-2l4-4v-10l-2-16-10 4-5 3h-3v2l-7 5h-2v2l-7 5-7 7-4-1v-2h-2l-2-5h-2l-1-4h-2v-2h-2l-5-5-7-4v-2l-5-2-14-7-6-2-11-2h-34l-22 4-24 8h-5l2-9 3-8v-14l-3-9-3-5-5 2-5 3h-3v2l-9 5-9 6h-3v2l-7 4-8 5h-2v2l-11 7-3 2 1 12 6 9 4 4 5 3-2 4-13 7h-3v2l-12 7-11 6-9 6-11 6-19 12-12 6-11 5-7 2h-22l-8-6-7-11-3-11-3-15-4-14-3-6v-2h-2v-2l-10 2-5 3-9 11-6 9-3 8-3 5-6 18-5 16-4 20-2 20v20l3 21 5 19 8 17v3h2l6 9v2h2v3h2v2h2v2h2v2h2l5 5 6 5v2l6 2v2l4 1 19 10 27 9 23 4 11 1h27l10-2 31-3 29-5 18-4 24-8 16-6 16-7 3 6 3 13 5 12 6 11v2h2l4 6 1 3h2l4 4 10 6 1 3 5 2h13l12-5 10-8 1-2h2l2-5 3-8-8 6-5 5h-2v2l-10 4h-8l-7-2v-2l-4-1-7-6v-2h-2l-6-9-8-18-3-14v-37l5-12 5-7 7-6 9-5 6-1h21l3 5 6 18 9 16 5 9 4 5v2h2v2h2v2h2l5 6 10 7 7 4 5 3 14 4 26 2-3 9-6 13h-2l-1 5-13 23-6 11-1 2h-2l-2 6-12 18-13 19h-2l-2 5-6 8h-2l-2 5-3 4h-2v3h-2l-2 5-3 5-1 5 8-2 9-5 4-2v-2l7-5 1-2h2v-2h2v-2h2l2-5 6-8 12-18 9-8 9-4h23l9 4 10 9 5 10 1 3v42l6-4 9-7h17l3 3 1 8-2 8-6 17-6 9-6 4-4 1h-13l-12-5v-2l-4-1-7-2-10 1-11 6h-3v2l-7 4-17 10-22 11-11 5-16 6-21 7-8 3-36 8-18 3-17 2h-75l-19-2-22-4-5-2-22-5-11-4-10-3-13-6-12-5-2-2-7-3-20-12v-2l-6-2v-2l-5-2v-2l-4-1v-2l-4-2-4-3v-2l-4-2-5-4-8-8v-2h-2v-2h-2v-2h-2v-2h-2v-3h-2l-10-13-7-10-14-28-4-12-3-7-4-14-4-19-2-12-3-41-1-4-7 1-1 3v11l2 21v30l-5 8-6 2h-7l-10-2-14-7v-2l-5-2-3-3v-2l-4-2-5-7v-2h-2l-8-18-2-8v-31l6-18 6-11 7-9 9-10 14-10 10-5 12-4h3l2-23 4-21 4-16 5-15 3-11 3-7 6-16 10-23 12-21 9-14 8-11 4-6h2v-2h2v-3h2l2-4 3-5h2v-2h2l2-4 2-3h2v-2h2v-2h2v-2l5-5 6-7 7-5 4-4 5-2v-2l19-14 6-2v-2l11-6 10-6 19-9 10-4 13-5 18-5 19-4 15-2h65l36 6 5 2 16 4 24 8 12 6 10 4 6 3v-2l-6-2v-2l-6-2-9-6-14-7-10-3-7-3-23-5-9-2-1-2 1-2 5-2z" fill="#C7C9C9"/>
<path transform="translate(0)" d="m0 0h819v809h-819zm424 27-3 1-24 2-25 5-23 6-6 2-19 6-12 5-15 6-15 8-16 8-7 5-3 1v2l-4 1-11 7-13 10-14 11-10 9-2 1v2l-4 2-14 14-7 8-11 13-9 11-9 12-10 15-5 7-6 11-13 23-7 14-4 11-4 8-6 15-7 20-4 11-3 10-4 14-3 13-4 8-7 6-8 7-7 7-12 17-6 10-5 11-5 13-3 13-2 10v33l3 17 5 15 7 15 7 12 5 7h2v2h2l2 4 6 5 6 9 6 21 4 9 6 16 7 15 7 14 9 14 9 13 9 11 9 10 6 7h2v2h2v2h2v2l11 9 12 10 6 4h2v2l16 10 18 10 16 8 15 6 13 5 33 9 25 5 15 2 22 2 20 1h32l20-1 38-4 27-5 14-4 22-5 33-11 30-12 15-7 14-8 7-3v-2l4-1 7-4 4-2v-2l4-1 16-11 4-3h6l11 4h29l15-5 15-9 4-3v-2l4-2 6-5v-2h2v-2h2v-2h2l14-21 3-5 4-10 2-7 1-23-3-14-8-14-7-8-8-6-7-4-1-2 3-7 9-16 9-19 7-16 5-11 6-16 3-10 6-18 5-22 3-13 4-26 2-20v-50l-2-21-4-24-6-24-11-33-8-17-10-18-9-15-11-16-5-7h-2l-2-4-3-5h-2v-2h-2l-2-4-6-7h-2l-2-4-7-6-4-5-22-18-17-12-25-15-16-8-5-3-13-5-10-4-15-5-14-4-9-3-13-2-7-2-19-3-13-1-3-1z" fill="#FDFDFD"/>
<path transform="translate(473,455)" d="m0 0 2 1 2 5 3 13 5 12 6 11v2h2l4 6 1 3h2l4 4 10 6-1 6-10 25-6 20-3 19v20l2 9 5 13 7 8v2l5 2 18 12v2h2v2h2l2 4v9l-3 6-3 4-15 6-8 2-21 4-21 3-18 1h-56l-15-1-27-4-12-3-17-4-15-5-17-6-28-14-7-4v-2l-5-2-9-6v-2l-5-2-6-5v-2h-2v-2l-4-2-10-10v-2h-2v-2h-2l-7-9v-2h-2v-3h-2l-8-13-6-10-5-11-6-18-4-15-2-10v-27l4-9h2v-2h2v-2l7-4 2-1h17l30 7 23 7 19 6 25 6 14 2h15l8-2-2-11v-6l7-2 31-3 29-5 18-4 24-8 16-6z" fill="#FDFDFD"/>
<path transform="translate(498,86)" d="m0 0 27 1 18 3 21 6 15 6 16 8 12 7 9 6v2l4 2 7 5v2h2l8 8v2h2v2h2v2h2v2h2l9 12v2h2l8 13 6 10 7 15 10 30 4 2v2l4 1v2l5 2 10 11 6 9v3h2l6 15 3 10 2 9 2 14v37l-4 24-5 18-6 15-8 14-9 12-10 11h-2v2l-8 5h-2v2l-15 6-10 1h-13l-9-2-12-6v-2l-4-2-6-5v-2h-2v-2h-2l-7-11-8-16-4-12-4-20-1-13v-21l1-13 2-12 5-18 6-16 10-20h2l2-5 10-13h2v-2l4-4v-10l-3-20-8-22-8-16-10-16-8-10v-2h-2v-2h-2l-7-8-3-2v-2l-5-2-4-3v-2l-6-2v-2l-6-2-9-6-14-7-10-3-7-3-23-5-9-2-1-2 1-2 5-2z" fill="#FDFDFD"/>
<path transform="translate(389,116)" d="m0 0h35l26 5 19 7 16 8 9 5v2l4 1v2l6 2v2l6 3v2l4 2 19 19v2h2l10 14 9 17 4 10v2h-4v-2l-5-2-14-7-6-2-11-2h-34l-22 4-24 8h-5l2-9 3-8v-14l-3-9-3-5-5 2-5 3h-3v2l-9 5-9 6h-3v2l-7 4-8 5h-2v2l-11 7-3 2 1 12 6 9 4 4 5 3-2 4-13 7h-3v2l-12 7-11 6-9 6-11 6-10 6h-8l-12 3h-15l-10-4-4-3v-2h-2l-3-7-2-12v-15l12-7 1-2h2v-2h2l2-4 3-5-1-5-5-9-3-4 3-9 7-14h2l2-5 9-11 7-7 1-2h2v-2h2v-2l4-3h2v-2l12-9h3v-2l7-4 14-7 10-4 9-3z" fill="#FDFDFD"/>
<path transform="translate(654,275)" d="m0 0h16l8 4 1 3 4 2 4 4 2 5h2l6 15 2 9 1 19-1 12-4 16-5 11-7 11h-2v2h-2l-2 4-3 1v2l-10 5-5 1h-7l-9-3-8-5v-2h-2l-2-5h-2l-6-11-3-11-2-10v-22l4-19 5-12 8-12h2l2-4 7-6h3v-2z"/>
<path transform="translate(624,572)" d="m0 0h5l6 5v20l-4 13-6 11-3 5h-2v2h-2v3h-2v2h-2v2l-4 3h-2v2l-4 2h-13l-6-4-5-8v-10l5-10h2v-2h-3v2l-7 4v-2h2v-2l7-5 1-2h2v-2h2v-2h2l2-5h2l-2 5h2l2-4 16-17z" fill="#FEFEFE"/>
<path transform="translate(258,193)" d="m0 0 5 1 7 13 7 10 2 4-1 5-5 8h-2v2h-2l-1 3-12 7h-8l-8-6-1-3v-13l3-10 2-5h2l2-5 6-8z"/>
<path transform="translate(727,307)" d="m0 0h3l1 5v37l-4 24-3-2 1-10 1-9z" fill="#C9CBCB"/>
<path transform="translate(710,254)" d="m0 0 4 4 2 3v3h2l6 15 3 10 2 9v15h-1v-6h-2l-3-16-6-18-8-16z" fill="#E0E1E1"/>
<path transform="translate(717,391)" d="m0 0 1 4-2 11-8 14-9 12-10 11h-2v-2h2l1-4 9-11 8-13 6-11z" fill="#C8CACA"/>
<path transform="translate(595,594)" d="m0 0h2l-2 7h-2v2h-2l-2 4-5 1v2l-7 4v-2h2v-2l7-5 1-2h2v-2h2v-2h2z" fill="#E6E7E7"/>
<path transform="translate(664,182)" d="m0 0 4 2 7 14-1 5-2-1-3-8-5-9z" fill="#DCDDDD"/>
<path transform="translate(677,212)" d="m0 0 4 2 2 7h-2l2 5-1 4-3-7-2-7z" fill="#DADBDB"/>
<path transform="translate(726,296)" d="m0 0h2l1 2v15h-1z" fill="#F2F3F3"/>
<path transform="translate(650,162)" d="m0 0h4v2h2l3 6-3 1-2-5h-2z" fill="#E3E4E4"/>
<path transform="translate(588,604)" d="m0 0 1 3-5 1v2l-7 4v-2h2v-2z" fill="#F0F0F0"/>
<path transform="translate(664,182)" d="m0 0 4 2 3 7-5-2-2-4z" fill="#E2E3E3"/>
<path transform="translate(725,370)" d="m0 0h1v8l-4 1 1-8z" fill="#E5E6E6"/>
</svg>
